<svg id="Layer_1" data-name="Layer 1" xmlns="http://www.w3.org/2000/svg" xmlns:xlink="http://www.w3.org/1999/xlink" viewBox="0 0 1224 2448"><defs><style>.cls-1,.cls-2,.cls-9{fill:none;}.cls-2,.cls-3,.cls-4,.cls-9{stroke:#231f20;}.cls-2,.cls-3,.cls-4,.cls-5,.cls-9{stroke-miterlimit:10;}.cls-3,.cls-5{fill:#fff;}.cls-4{fill:url(#Hexes);}.cls-5{stroke:#010101;stroke-width:0.13px;}.cls-6{fill:#37b24a;}.cls-7{fill:#14181f;}.cls-8{clip-path:url(#clip-path);}.cls-9{stroke-width:2px;}</style><pattern id="Hexes" data-name="Hexes" width="301.73" height="174.21" patternUnits="userSpaceOnUse" viewBox="0 0 301.73 174.21"><rect class="cls-1" width="301.73" height="174.21"/><polygon class="cls-2" points="351.73 87.6 251.73 87.6 201.73 174.21 251.73 260.81 351.73 260.81 401.73 174.21 351.73 87.6"/><line class="cls-3" x1="251.73" y1="87.6" x2="351.73" y2="260.81"/><line class="cls-3" x1="201.73" y1="174.21" x2="401.73" y2="174.21"/><line class="cls-3" x1="251.73" y1="260.81" x2="351.73" y2="87.6"/><line class="cls-2" x1="251.73" y1="87.6" x2="301.73" y2="116.47"/><line class="cls-2" x1="351.73" y1="87.6" x2="301.73" y2="116.47"/><line class="cls-2" x1="301.73" y1="174.21" x2="301.73" y2="116.47"/><line class="cls-2" x1="201.73" y1="174.21" x2="251.73" y2="203.07"/><line class="cls-2" x1="301.73" y1="174.21" x2="251.73" y2="203.07"/><line class="cls-2" x1="301.78" y1="174.21" x2="351.78" y2="203.07"/><line class="cls-2" x1="201.74" y1="174.22" x2="251.74" y2="145.36"/><line class="cls-2" x1="251.74" y1="87.62" x2="251.74" y2="145.36"/><line class="cls-2" x1="301.74" y1="174.22" x2="251.74" y2="145.36"/><line class="cls-2" x1="301.77" y1="174.19" x2="351.77" y2="145.32"/><polygon class="cls-2" points="50 87.6 -50 87.6 -100 174.21 -50 260.81 50 260.81 100 174.21 50 87.6"/><line class="cls-3" x1="-50" y1="87.6" x2="50" y2="260.81"/><line class="cls-3" x1="-100" y1="174.21" x2="100" y2="174.21"/><line class="cls-3" x1="-50" y1="260.81" x2="50" y2="87.6"/><line class="cls-2" x1="-50" y1="87.6" y2="116.47"/><line class="cls-2" x1="50" y1="87.6" y2="116.47"/><line class="cls-2" y1="174.21" y2="116.47"/><line class="cls-2" y1="174.21" x2="-50" y2="203.07"/><line class="cls-2" x1="0.04" y1="174.21" x2="50.04" y2="203.07"/><line class="cls-2" x1="100.04" y1="174.21" x2="50.04" y2="203.07"/><line class="cls-2" x1="0.01" y1="174.22" x2="-49.99" y2="145.36"/><line class="cls-2" x1="0.03" y1="174.19" x2="50.03" y2="145.32"/><line class="cls-2" x1="50.03" y1="87.58" x2="50.03" y2="145.32"/><line class="cls-2" x1="100.03" y1="174.19" x2="50.03" y2="145.32"/><polygon class="cls-2" points="351.73 -86.6 251.73 -86.6 201.73 0 251.73 86.6 351.73 86.6 401.73 0 351.73 -86.6"/><line class="cls-3" x1="251.73" y1="-86.6" x2="351.73" y2="86.6"/><line class="cls-3" x1="201.73" x2="401.73"/><line class="cls-3" x1="251.73" y1="86.6" x2="351.73" y2="-86.6"/><line class="cls-2" x1="201.73" x2="251.73" y2="28.87"/><line class="cls-2" x1="301.73" x2="251.73" y2="28.87"/><line class="cls-2" x1="251.73" y1="86.6" x2="251.73" y2="28.87"/><line class="cls-2" x1="301.78" x2="351.78" y2="28.87"/><line class="cls-2" x1="201.74" y1="0.02" x2="251.74" y2="-28.85"/><line class="cls-2" x1="301.74" y1="0.02" x2="251.74" y2="-28.85"/><line class="cls-2" x1="251.74" y1="86.62" x2="301.74" y2="57.75"/><line class="cls-2" x1="301.74" y1="0.02" x2="301.74" y2="57.75"/><line class="cls-2" x1="351.74" y1="86.62" x2="301.74" y2="57.75"/><line class="cls-2" x1="301.77" y1="-0.02" x2="351.77" y2="-28.89"/><polygon class="cls-2" points="200.87 0.5 100.87 0.5 50.87 87.1 100.87 173.71 200.87 173.71 250.87 87.1 200.87 0.5"/><line class="cls-3" x1="100.87" y1="0.5" x2="200.87" y2="173.71"/><line class="cls-3" x1="50.87" y1="87.1" x2="250.87" y2="87.1"/><line class="cls-3" x1="100.87" y1="173.71" x2="200.87" y2="0.5"/><line class="cls-2" x1="100.87" y1="0.5" x2="150.87" y2="29.37"/><line class="cls-2" x1="200.87" y1="0.5" x2="150.87" y2="29.37"/><line class="cls-2" x1="150.87" y1="87.1" x2="150.87" y2="29.37"/><line class="cls-2" x1="50.87" y1="87.1" x2="100.87" y2="115.97"/><line class="cls-2" x1="150.87" y1="87.1" x2="100.87" y2="115.97"/><line class="cls-2" x1="100.87" y1="173.71" x2="100.87" y2="115.97"/><line class="cls-2" x1="150.91" y1="87.1" x2="200.91" y2="115.97"/><line class="cls-2" x1="250.91" y1="87.1" x2="200.91" y2="115.97"/><line class="cls-2" x1="200.91" y1="173.71" x2="200.91" y2="115.97"/><line class="cls-2" x1="50.88" y1="87.12" x2="100.88" y2="58.25"/><line class="cls-2" x1="100.88" y1="0.52" x2="100.88" y2="58.25"/><line class="cls-2" x1="150.88" y1="87.12" x2="100.88" y2="58.25"/><line class="cls-2" x1="100.88" y1="173.72" x2="150.88" y2="144.86"/><line class="cls-2" x1="150.88" y1="87.12" x2="150.88" y2="144.86"/><line class="cls-2" x1="200.88" y1="173.72" x2="150.88" y2="144.86"/><line class="cls-2" x1="150.9" y1="87.08" x2="200.9" y2="58.22"/><line class="cls-2" x1="200.9" y1="0.48" x2="200.9" y2="58.22"/><line class="cls-2" x1="250.9" y1="87.08" x2="200.9" y2="58.22"/><polygon class="cls-2" points="50 -86.6 -50 -86.6 -100 0 -50 86.6 50 86.6 100 0 50 -86.6"/><line class="cls-3" x1="-50" y1="-86.6" x2="50" y2="86.6"/><line class="cls-3" x1="-100" x2="100"/><line class="cls-3" x1="-50" y1="86.6" x2="50" y2="-86.6"/><line class="cls-2" x2="-50" y2="28.87"/><line class="cls-2" x1="0.04" x2="50.04" y2="28.87"/><line class="cls-2" x1="100.04" x2="50.04" y2="28.87"/><line class="cls-2" x1="50.04" y1="86.6" x2="50.04" y2="28.87"/><line class="cls-2" x1="0.01" y1="0.02" x2="-49.99" y2="-28.85"/><line class="cls-2" x1="-49.99" y1="86.62" x2="0.01" y2="57.75"/><line class="cls-2" x1="0.01" y1="0.02" x2="0.01" y2="57.75"/><line class="cls-2" x1="50.01" y1="86.62" x2="0.01" y2="57.75"/><line class="cls-2" x1="0.03" y1="-0.02" x2="50.03" y2="-28.89"/><line class="cls-2" x1="100.03" y1="-0.02" x2="50.03" y2="-28.89"/></pattern><clipPath id="clip-path"><rect class="cls-1" x="1244" width="1224" height="2448"/></clipPath></defs><rect class="cls-4" width="1224" height="2448"/><path class="cls-5" d="M244,2210.54a172,172,0,0,1-33.06,6.63,99.84,99.84,0,0,1-13.51.41c-4.31-6.42-8.65-12.82-12.89-19.26-.75-1.14-1.39-1.57-3-1.11a21.5,21.5,0,0,1-8.65.36c-6.91-.91-12.5-4.31-18.49-6.9-3.12-1.35-5.83-3.34-8.75-5-.54-.31-1-.88-1.78-.74l-.06-.1.1.08c.32.63.59,1.28.95,1.9q5.38,9.16,10.77,18.34c.33.56.84,1.07.78,1.76-.83.06-1.19-.53-1.73-.86-10.46-6.21-16.2-14.93-19.11-25.14a18.8,18.8,0,0,0-.65-2c-.33-.82,0-2.23-2.14-1.31-1,.45-1.6-.67-2-1.41-1.48-2.82-2.45-5.79-3.63-8.69-2.81-6.88-4-14.1-6.22-21.09a69.67,69.67,0,0,0-5.73-13.44c2.77,1,4.59,2.62,6.84,3.91,5.84-20.19,14.92-38.71,35.92-52-1.6,9.81,2.22,18.08,7.42,26.09.71,1.11,1.3,1.4,2.82.8a106.14,106.14,0,0,1,43.54-7.3c2.56.11,5.11.5,7.67.7a1.89,1.89,0,0,1,1.84,1.59c3.29,9.76,7.21,19.36,10.78,29.05a34.3,34.3,0,0,0,11.12,14.89c9.46,7.62,20.29,13.18,33.53,14.88a76.59,76.59,0,0,0,26.88-1.48,14.49,14.49,0,0,1,4.16-.82l.31.22c-7.86,15.77-20.32,28.28-37.88,37.18-1.49-1.13-3-2.21-4.47-3.39-5-4.13-9.52-4.51-15.19-1.09a38.41,38.41,0,0,0-10.26,9.53c-.56.7-.3,1.12.29,1.64C241.67,2208.37,242.82,2209.46,244,2210.54Z"/><path class="cls-5" d="M156.36,2206.89c.06-.69-.45-1.2-.78-1.76q-5.37-9.18-10.77-18.34c-.36-.62-.63-1.27-.95-1.9l0,0c.82-.14,1.24.43,1.78.74,2.92,1.68,5.63,3.67,8.75,5,6,2.59,11.58,6,18.49,6.9a21.5,21.5,0,0,0,8.65-.36c1.64-.46,2.28,0,3,1.11,4.24,6.44,8.58,12.84,12.89,19.26q5.58,8.64,11.17,17.27c1.22,1.88,2.51,3.72,3.65,5.62a3.31,3.31,0,0,0,2.63,1.59,74.28,74.28,0,0,1,16.62,4.47c9,3.78,10.88,8.29,8.25,16-2.34,6.88-6.87,12.74-12.38,18.14A64.27,64.27,0,0,1,205,2295.06a54.16,54.16,0,0,1-20.19,3.8c-6.88-.08-13.68-.68-20.5-1.39-6.24-.64-12.48-1.25-18.78-1.55a140.24,140.24,0,0,0-14.66.22c-7.52.4-15,1.41-22.46,2.24-8.59.95-15.47-1-19.11-8.53-2.28-4.69-6-7.18-11.48-8.5A56,56,0,0,1,67.11,2278c-1-.44-1.78-1-2.68-1.48-3.28-1.76-3.22-3.8.06-5.55a105.65,105.65,0,0,1,21.05-8c8-2.29,16.38-3.3,24.68-4.54,18.51-2.77,37.12-5.16,55.27-9.42a43.32,43.32,0,0,0,9.1-3c1.72-.83,1.74-1.74,1.28-3a94.06,94.06,0,0,0-5.77-12c-3.28-6.11-6.68-12.18-10.07-18.25-1-1.82-2.16-3.58-3.25-5.37a.53.53,0,0,0-.43-.57Z"/><path class="cls-5" d="M385.86,2164.64c3.87.29,6.69,2.33,9.65,4.09,1.85,1.11,3.53,2.41,5.29,3.63s4.25,1.2,6.49,1.37c5,.37,10.08.41,15.08,1.25,3.84.64,4.06,3,4.48,5.36,1.38,7.6.94,15.18-.32,22.79A71.88,71.88,0,0,1,417.1,2229c-7.89,13-20,22.58-35.37,29.44a151.82,151.82,0,0,1-39.31,11.07c-5.85.89-11.75,1.47-17.69,1.86a184.3,184.3,0,0,1-20.35.21c-7.39-.34-14.79-1.16-21.69-3.74a2.22,2.22,0,0,1-.46-.29c.73-2.38,2.61-3.6,5.41-4.32,6.91-1.79,13.85-3.57,20.27-6.43,2.32-1,4.7-2,6.35-3.87a149.43,149.43,0,0,0,17.6-23.63c1.58-2.65,3.32-5.4,3.37-8.37a164.1,164.1,0,0,1,1.8-20.27,129.84,129.84,0,0,1,2.36-13.93c.77-3.08,2.93-4.94,6.71-5.37,2.2-.26,4.42-.36,6.62-.64,5.81-.76,11.22-2.2,15.29-6.08a49.76,49.76,0,0,1,7-5.51C378.22,2167,381.57,2165,385.86,2164.64Z"/><path class="cls-5" d="M166.5,1914.72a81.56,81.56,0,0,0,9.12,1.4c5.24.52,9.9-1.15,14.6-2.68,1.54,0,1.31-.92,1.3-1.72a25.43,25.43,0,0,1,1.34-9.65c1.07-2.7,3-3.25,6-1.83a18.55,18.55,0,0,1,4.56,3.3,36.31,36.31,0,0,1,7.26,9.3c3,5.49,7.87,9.33,14.67,11.47,3.38,1.07,6.69,2.28,10.1,3.29a227.78,227.78,0,0,0,25.87,6.06,2.32,2.32,0,0,1,1.79,1.66c.63,2.14,1,4.31-.16,6.3-2.06,3.61-1.76,7.2-.63,10.89.77,2.49.16,5-.19,7.46-.43,3-1,6-1.52,9.06,0,.26.17.54.26.82-5,3.59-10.26,7-16.43,9.13-3.58,1.25-7.33,2.12-11.1.58a13.17,13.17,0,0,0-9.68-.21c-3.52,1.24-7,2.62-10.44,4a81.31,81.31,0,0,1-14.41,4.53c-8.35,1.54-15.15-.49-18.61-6.44-1.82-3.13-4.09-4.28-7.89-4.05l-.21,0c-7.47-.43-14.42.62-20.3,4.83-2.64,1.89-5.34,3.72-8,5.57,1.18-6.79,5.42-12.09,11.74-16.25,1.46-1,1.68-1.72,1.26-3.15-2.45-8.31-3.18-16.69-.78-25.12.34-1.17.86-2.29,1.41-3.72-3,1.53-5,4-8.76,4.39a6,6,0,0,1,1.6-2.74,98.22,98.22,0,0,0,6.28-8.41c.79-1.29,1.58-2.57,1.22-4.12-.23-1,.75-1.46,1.59-1.84,1.76-.82,3.6-1.52,5.37-2.32,4.08-1.82,4.59-3,3.18-6.78-.38-1-1.46-1.81-1.32-3Z"/><path class="cls-6" d="M261.28,1933.66a227.78,227.78,0,0,1-25.87-6.06c-3.41-1-6.72-2.22-10.1-3.29-6.8-2.14-11.65-6-14.67-11.47a36.31,36.31,0,0,0-7.26-9.3,18.55,18.55,0,0,0-4.56-3.3c-3-1.42-4.89-.87-6,1.83a25.43,25.43,0,0,0-1.34,9.65c0,.8.24,1.72-1.3,1.72l-9.53-8.65c-1.69-3-3.48-6.06-5-9.16-3.46-6.82-5.43-14-4.54-21.36,1.13-9.36,5.74-17.23,16.22-21.77,5.49-2.37,11.46-2.86,17.66-2.28a55.06,55.06,0,0,1,25,8.5c3.85,2.46,6.19,6.1,9.6,8.88,5.95,4.86,7.22,11.49,10.22,17.48,1.26,2.51,2.58,5,3.67,7.58,1.71,4,5.95,6,9.74,8.29,6.69,4.07,13.29,8.22,19,13.28.38.34.74.69,1.13,1,4.39,3.78,4.15,7.94,1.47,12.31a51.73,51.73,0,0,1-10.7,5.36C269.81,1933.29,265.55,1933.6,261.28,1933.66Z"/><path class="cls-5" d="M143.74,1987.73c2.68-1.85,5.38-3.68,8-5.57,5.88-4.21,12.83-5.26,20.3-4.83l.21,0c3.8-.23,6.07.92,7.89,4.05,3.46,5.95,10.26,8,18.61,6.44a81.31,81.31,0,0,0,14.41-4.53c3.47-1.34,6.92-2.72,10.44-4a13.17,13.17,0,0,1,9.68.21c3.77,1.54,7.52.67,11.1-.58,6.17-2.16,11.39-5.54,16.43-9.13a23.66,23.66,0,0,1,7,4.27c1.16,1,1.34,2.12.38,3.3a16.34,16.34,0,0,1-8.44,5.93c-.95.27-1,.53-.77,1.21,1.38,5,7.83,8.76,13.81,8.09,7.08-.81,14.14-1.75,21.29-2.1,4.72-.23,9,.62,12.4,3.57,1.74,1.51,1.66,2.63-.37,3.88s-4,2.4-6.15,3.48a63.51,63.51,0,0,0-8.74,4.9c-3.63,2.64-8.26,3-12.69,3.78q-14.38,2.5-28.77,5a3.14,3.14,0,0,0-2.39,0q-12.84,3.73-25.69,7.44a22,22,0,0,0-4.73.5c-5.11.65-9.59-.06-13.27-3.45-3-2.74-6.48-5.1-9.39-7.88-2.72-2.61-5.57-5.1-8.4-7.61-4.84-4.3-11.12-6.86-17.33-9.48a36.08,36.08,0,0,0-12.13-3c-2.35-.13-4.77.31-7.18.23a12.84,12.84,0,0,1-3-.29C143.41,1990.74,143,1990.25,143.74,1987.73Z"/><path class="cls-6" d="M311.92,2069.26c-2.49-.19-5-.45-7.48-.57-3.14-.15-4,.82-2.88,3.27,3.85,8.7,7.7,17.39,11,26.25a16.1,16.1,0,0,1,1.44,5.36c-3.94-1.35-7.7-2.67-11.5-3.91A100.27,100.27,0,0,0,290,2096.3a13.48,13.48,0,0,0-6.94.45,40.72,40.72,0,0,0-8.83,3.1c-3.66,1-3.4.79-6-1.63-5.26-5-7.63-11.1-10.67-17A97.74,97.74,0,0,0,252,2071c-.47-.69-.34-1,.36-1.42s1.09-.7,1.64-1.06c4.42-2.27,9.06-3.71,14.43-3.1,4.9.56,9.86.4,14.8.63,1.57.08,2-.3,1.95-1.63a65.79,65.79,0,0,1,.54-11.64c.57-4.57,2.95-8.53,5.63-12.42,1.48-1.82,2.83-3.72,4.46-5.45,3.21-3.39,7.07-6,12.65-5.74a19.05,19.05,0,0,1,12.64,5.52,19.8,19.8,0,0,1,5.16,7.16,2.62,2.62,0,0,0,1.42,1.19,28.31,28.31,0,0,1,4.53,2.1c1,.62,2.42.29,3.62.34a16.9,16.9,0,0,1,12.38,5.89,17.38,17.38,0,0,1,4.1,8.89,9.59,9.59,0,0,1,0,4.88,20.59,20.59,0,0,1-6.14-3c-2.24-1.45-2.95-1.29-3.69,1-.51,1.56-.87,3.16-1.26,4.75a8.43,8.43,0,0,1-1.35,2.9,3.92,3.92,0,0,1-4,1.56c-4.79-.67-9.59-1.3-14.39-1.94Z"/><path class="cls-5" d="M385.86,2164.64c-4.29.37-7.64,2.33-10.89,4.47a49.76,49.76,0,0,0-7,5.51c-4.07,3.88-9.48,5.32-15.29,6.08-2.2.28-4.42.38-6.62.64-3.78.43-5.94,2.29-6.71,5.37a129.84,129.84,0,0,0-2.36,13.93,164.1,164.1,0,0,0-1.8,20.27c-.05,3-1.79,5.72-3.37,8.37a149.43,149.43,0,0,1-17.6,23.63c-1.65,1.83-4,2.83-6.35,3.87-6.42,2.86-13.36,4.64-20.27,6.43-2.8.72-4.68,1.94-5.41,4.32a8.8,8.8,0,0,1-3.29-1.61,1.66,1.66,0,0,1-.43-2.76A30.47,30.47,0,0,1,285,2258c3-2,5.85-4,8.88-5.92,1-.62.62-.9,0-1.23-5.46-2.79-10-6.52-14.59-10.14-6.92-5.46-13.58-11.14-20.23-16.82-5.12-4.37-10.05-8.9-15.06-13.35-1.16-1.08-2.31-2.17-3.5-3.22-.59-.52-.85-.94-.29-1.64a38.41,38.41,0,0,1,10.26-9.53c5.67-3.42,10.22-3,15.19,1.09,1.43,1.18,3,2.26,4.47,3.39a165.29,165.29,0,0,0,16.95,10.8,286.22,286.22,0,0,0,31.31,16c.67.29,1.37.54,2.06.78,2.73,1,2.78,1,4-1.34a53.68,53.68,0,0,0,4.32-13c1.33-5.86,2.49-11.75,3.64-17.63.54-2.75.8-5.55,1.34-8.3a13.7,13.7,0,0,1,5.44-8.46c1.52-1.15,3.58-1.4,5.47-1.85,5.25-1.24,10.52-2.38,15.76-3.64a11.49,11.49,0,0,0,4.75-2.56,29.56,29.56,0,0,1,18.54-7.07A3.1,3.1,0,0,1,385.86,2164.64Z"/><path class="cls-5" d="M291.31,2039.81c-2.68,3.53-5.06,7.13-5.63,11.28a54.38,54.38,0,0,0-.54,10.58c.07,1.2-.38,1.55-1.95,1.48-4.94-.21-9.9-.07-14.8-.58A26.68,26.68,0,0,0,254,2065.4a2.61,2.61,0,0,0-1.91-1.85,101.57,101.57,0,0,1-13.13-5.55c-3.5-1.77-5.64-5.45-4.6-8.46.21-.61.92-1.13,1.4-1.69a12.37,12.37,0,0,1,3.19-.92c10.59.36,19.62,3.76,28,8.35a1.39,1.39,0,0,0,1.77,0,5.12,5.12,0,0,1,2.44-.7h.08a6.61,6.61,0,0,1,1.84-.2c2.51.45,2.69-.8,2.69-2.09s-.16-2.85-.26-4.27v-3.2c.32-2-.08-4,.59-6a9,9,0,0,1,1.62-2.89c2.12-.78,4.1.08,6.14.3C286.22,2037.55,289.09,2038.29,291.31,2039.81Z"/><path class="cls-7" d="M274.06,1932.93a51.73,51.73,0,0,0,10.7-5.36,81.18,81.18,0,0,1,11,8.49c4.23,3.9,8,8,10.05,13.14,1.57,4,1.24,8,.63,12a73.58,73.58,0,0,1-3.9,14.87c-.93,0-1-.6-1.2-1a47.61,47.61,0,0,0-5.22-8c-1.37-1.66-2.72-1.79-4.17-.2-2,2.19-3.73,4.58-6.17,6.5a5.06,5.06,0,0,1-3.4,1.33,122,122,0,0,0,3.84-13.83,35.29,35.29,0,0,0,.61-9.88,10.33,10.33,0,0,0-1.79-4.77,80.84,80.84,0,0,0-10-12.18C274.68,1933.69,274.38,1933.3,274.06,1932.93Z"/><path class="cls-5" d="M271.22,2056.56l-.08,0a66.47,66.47,0,0,0-18.09-12.13q-6.69-3-13.46-5.9a7.33,7.33,0,0,1-2.78-2,112.62,112.62,0,0,0-9.77-10.17,25.68,25.68,0,0,0-5.33-3.86q12.84-3.71,25.69-7.44a3.14,3.14,0,0,1,2.39,0c-1.54.18-1.79.74-1.22,2,1.54,3.35,2.94,6.74,4.31,10.14a2.85,2.85,0,0,0,1.85,1.71c5.27,2,9,5.3,11.13,9.86a69.07,69.07,0,0,1,5.37,16.56A6.88,6.88,0,0,1,271.22,2056.56Z"/><path class="cls-5" d="M311.92,2069.26l9.48,1.06c3.49,5.41,6.87,10.87,10.06,16.41a23.39,23.39,0,0,1,2.74,15.47,60.91,60.91,0,0,1-2.64,11.66c-1.44,4.21-4.87,5.82-10.41,5,2.1-3.16,1.7-6.67,2-10.05a116.11,116.11,0,0,0,0-13.06c-.18-4.93-2.21-9.49-4.34-14C316.81,2077.41,314,2073.47,311.92,2069.26Z"/><path class="cls-5" d="M274.22,2099.85a40.72,40.72,0,0,1,8.83-3.1c1.81,1.66,3.58,3.37,5.46,5,3.46,3,5.53,6.4,5.78,10.57a39.06,39.06,0,0,1-.88,12.09,5,5,0,0,1-3.1,3.07,70.63,70.63,0,0,1-10.47,3.74c.63-2.58,1.22-5,1.83-7.42a39.27,39.27,0,0,0,1.44-12.81c-.32-3.91-2.77-7-6.4-9.38C275.87,2101,275.05,2100.43,274.22,2099.85Z"/><path class="cls-5" d="M238.91,2048.17a12.13,12.13,0,0,0-3.19,1c-3-.57-5.87-1.69-9-2.12-6.61-.89-12,.51-16.06,5.08-.58.65-1,1.66-2.19,1.58-.66,0-1.75-3-1.35-3.59a14.61,14.61,0,0,1,2.06-2.68,20.8,20.8,0,0,1,26.13-1.55C236.44,2046.72,237.7,2047.42,238.91,2048.17Z"/><path class="cls-5" d="M180.69,1904.79l9.53,8.65c-4.7,1.53-9.36,3.2-14.6,2.68.88-2.29,1.8-4.57,2.64-6.88A22.72,22.72,0,0,1,180.69,1904.79Z"/><path class="cls-5" d="M283.84,2036.38c-2-.23-4-1.18-6.14-.32-1.21-3.37-2.09-6.85-4.68-9.76-.45-.5-.9-1-1.58-1.73a24.26,24.26,0,0,1,8.65,1.68c1.45.62,1.63,2.31,2.2,3.6C283.22,2032,284.17,2034.07,283.84,2036.38Z"/><path class="cls-5" d="M275.49,2045.83v2.11A1.7,1.7,0,0,1,275.49,2045.83Z"/><path class="cls-5" d="M156.35,2206.85a.53.53,0,0,1,.43.57C156.59,2207.26,156.12,2207.23,156.35,2206.85Z"/><path class="cls-5" d="M275.49,2049v.4c0-.09-.07-.18-.09-.27S275.46,2049,275.49,2049Z"/><path class="cls-5" d="M307.68,2163.23l.26-.18c0,.14,0,.27.05.4Z"/><path class="cls-5" d="M166.53,1914.69l-.12.11.09-.08Z"/><path class="cls-5" d="M143.86,2184.89l-.1-.08.06.1Z"/><g class="cls-8"><line class="cls-9" x1="2580.94" y1="1346.31" x2="1162.43" y2="-158.16"/><line class="cls-9" x1="2843.15" y1="1075.51" x2="1093.66" y2="379.15"/><line class="cls-9" x1="2615.33" y1="2055.57" x2="1123.75" y2="787.51"/></g></svg>